<svg height="30" viewBox="0 0 30 30" width="30" xmlns="http://www.w3.org/2000/svg" xmlns:sketch="http://www.bohemiancoding.com/sketch/ns"><g id="arrow" fill="none" fill-rule="evenodd"><g id="arrow_110-next-forward-onward-direction-right" transform="translate(-270 -630)"><g transform="translate(272 632)"><path d="m25 12.5c0-6.903559-5.596441-12.5-12.5-12.5s-12.5 5.596441-12.5 12.5 5.596441 12.5 12.5 12.5 12.5-5.596441 12.5-12.5z" fill="#673ab7" transform="matrix(-1 0 0 1 25 0)"/><path d="m13.5 7c-.127961 0-.255922.048816-.353553.146447l-5 5c-.195263.195262-.195263.511844 0 .707106l5 5c.097631.097631.225592.146447.353553.146447h4c.127961 0 .255922-.048816.353553-.146447.195263-.195262.195263-.511844 0-.707106l-4.64757-4.647571 4.64757-4.645323c.195263-.195262.195263-.511844 0-.707106-.097631-.097631-.225592-.146447-.353553-.146447z" fill="#fff" transform="matrix(-1 0 0 1 26 0)"/></g></g></g></svg>