<svg height="30" viewBox="0 0 30 30" width="30" xmlns="http://www.w3.org/2000/svg" xmlns:sketch="http://www.bohemiancoding.com/sketch/ns"><g id="arrow" fill="none" fill-rule="evenodd"><g id="arrow_105-back-backward-previous-direction-left" transform="translate(-45 -630)"><g transform="translate(47 632)"><path d="m25 12.5c0-6.90355937-5.5964406-12.5-12.5-12.5-6.90355937 0-12.5 5.59644063-12.5 12.5 0 6.9035594 5.59644063 12.5 12.5 12.5 6.9035594 0 12.5-5.5964406 12.5-12.5z" fill="#673ab7"/><path d="m5.66116524 12.1464466 7.48528136-7.48528136c.1952622-.19526215.5118446-.19526215.7071068 0l2.1213203 2.12132034c.1952622.19526214.1952622.51184463 0 .70710678l-5.0104076 5.01040764 5.0104076 5.0104076c.1952622.1952622.1952622.5118447 0 .7071068l-2.1213203 2.1213204c-.1952622.1952621-.5118446.1952621-.7071068 0l-7.48528136-7.4852814c-.19799005-.1979901-.19798904-.5091178 0-.7071068z" fill="#fff"/></g></g></g></svg>